Coordinates
version=1
nRows=27
nColumns=19
inDegrees=yes

Units are S.I. units (second, meters, Newtons, ...)
If the header above contains a line with 'inDegrees', this indicates whether rotational values are in degrees (yes) or radians (no).

endheader
time	pelvis_tilt	pelvis_list	pelvis_rotation	pelvis_tx	pelvis_ty	pelvis_tz	hip_flexion_r	hip_adduction_r	hip_rotation_r	knee_angle_r	knee_angle_r_beta	ankle_angle_r	hip_flexion_l	hip_adduction_l	hip_rotation_l	knee_angle_l	knee_angle_l_beta	ankle_angle_l
     16.86000000	     -4.39154643	      8.33544548	      3.38230524	      2.26368209	      0.96071489	      1.02412848	     -7.53769496	    -10.49954936	     -8.36438003	     82.04119045	      1.43188890	    -16.07700912	     28.05145890	      8.87320605	     -8.37442417	     16.39432475	      0.28613495	     -5.93614466
     16.86666667	     -4.04401003	      9.04058699	      3.71291508	      2.26251083	      0.95613527	      1.02324166	     -5.93607567	    -11.55100429	     -8.23808943	     86.17406597	      1.50402118	    -14.83421607	     27.37473743	      9.74136444	     -8.73385807	     18.69615425	      0.32630945	     -4.65794082
     16.87333333	     -4.44475831	      9.51253563	      3.92062366	      2.26102084	      0.95055269	      1.02258332	     -3.20221382	    -12.34398815	     -7.60958414	     90.40238961	      1.57781935	    -13.61664909	     27.57606669	     10.29271402	     -9.15136725	     21.34733336	      0.37258125	     -2.97198817
     16.88000000	     -4.48252133	     10.06383366	      4.28318178	      2.25931534	      0.94518282	      1.02196762	     -0.86597483	    -13.18734295	     -7.14603391	     94.40247872	      1.64763408	    -12.33566731	     27.34587710	     11.00148457	     -9.23891358	     24.14143623	      0.42134755	     -0.82593592
     16.88666667	     -4.54521241	     10.55007508	      4.70746086	      2.25729123	      0.93979133	      1.02143011	      1.62089069	    -13.93337758	     -6.60704909	     98.24587981	      1.71471408	    -11.06783469	     27.08870141	     11.67990248	     -9.11632436	     26.99089443	      0.47107998	      1.64305452
     16.89333333	     -4.64198098	     10.98848204	      5.19405457	      2.25502403	      0.93455603	      1.02093632	      4.25140001	    -14.61408100	     -6.01251696	    101.88171209	      1.77817132	     -9.82363115	     26.74121867	     12.36336778	     -8.75943408	     29.72797766	      0.51885109	      4.33593653
     16.90000000	     -4.35042566	     11.42046195	      5.71362837	      2.25256353	      0.93012879	      1.02051931	      6.50236616	    -15.26348601	     -5.47375621	    105.18668072	      1.83585391	     -8.58519849	     25.78555362	     13.07241649	     -8.13366238	     32.22198413	      0.56237971	      7.16413105
     16.90666667	     -5.00784182	     11.44434785	      6.30857326	      2.24977129	      0.92515230	      1.02004467	     10.09289786	    -15.41258862	     -4.62095616	    108.34666226	      1.89100599	     -7.58252492	     25.78010760	     13.43625150	     -7.32007131	     34.63829874	      0.60455236	     10.08763884
     16.91333333	     -5.21040541	     11.47520081	      6.91594232	      2.24696946	      0.92132651	      1.01957973	     13.17714942	    -15.58340862	     -3.91753070	    111.06214715	      1.93840014	     -6.61329731	     24.99598345	     13.80665673	     -6.29858912	     36.59054920	      0.63862556	     12.90753012
     16.92000000	     -5.39124748	     11.35024318	      7.54194521	      2.24425060	      0.91826599	      1.01905236	     16.28537959	    -15.60086365	     -3.28296004	    113.35253157	      1.97837489	     -5.74944552	     23.92872324	     14.01699076	     -5.08509405	     38.12645210	      0.66543212	     15.59269373
     16.92666667	     -5.14957457	     11.21357831	      8.03574031	      2.24188527	      0.91651186	      1.01856967	     18.90300067	    -15.56080459	     -2.69162129	    115.11951654	      2.00921460	     -4.86923506	     22.06599955	     14.09130384	     -3.85009600	     39.07649182	      0.68201344	     18.11661354
     16.93333333	     -5.00912235	     10.85669776	      8.46180823	      2.23967916	      0.91546635	      1.01796937	     21.68734691	    -15.31268028	     -2.14822679	    116.45293057	      2.03248706	     -4.19028115	     20.08054754	     13.88851903	     -2.49312112	     39.57258510	      0.69067190	     20.24484401
     16.94000000	     -5.55791313	     10.01211355	      8.92425027	      2.23767336	      0.91435744	      1.01718852	     25.28625749	    -14.57331031	     -1.73310590	    117.38245616	      2.04871034	     -3.65232963	     18.76848069	     13.17377337	     -1.15709044	     39.87889350	      0.69601799	     21.95926468
     16.94666667	     -5.48064988	      9.41134163	      9.12898614	      2.23637840	      0.91478322	      1.01635118	     28.02524786	    -14.09114273	     -1.34043379	    117.77318775	      2.05552990	     -3.08252750	     16.36750368	     12.53088164	      0.06107548	     39.39752750	      0.68761657	     23.22451998
     16.95333333	     -5.48149229	      8.50491919	      9.14631989	      2.23548212	      0.91577584	      1.01549008	     30.80654050	    -13.21408764	     -1.04955006	    117.71602578	      2.05453223	     -2.64517425	     13.95181787	     11.45429914	      1.06802781	     38.59987312	      0.67369488	     24.01903734
     16.96000000	     -5.69493895	      7.64328569	      9.18115103	      2.23510994	      0.91711696	      1.01431049	     33.62408110	    -12.55231530	     -0.91341479	    117.27892067	      2.04690331	     -2.14608127	     11.53785842	     10.44429097	      2.08735834	     37.33116441	      0.65155173	     24.19515130
     16.96666667	     -5.53129632	      6.52767587	      8.70159646	      2.23529433	      0.91943395	      1.01348200	     35.96164999	    -11.32265444	     -0.74111013	    116.38066561	      2.03122580	     -1.85570452	      8.64708824	      8.94537635	      2.47018833	     35.72472118	      0.62351401	     23.80067833
     16.97333333	     -6.04095819	      5.51314712	      8.62176841	      2.23593321	      0.92140172	      1.01197102	     38.72516214	    -10.67035591	     -0.93790855	    115.21427138	      2.01086838	     -1.49849852	      6.37051178	      7.72427241	      3.06676213	     33.90682636	      0.59178576	     22.66950117
     16.98000000	     -5.72342784	      4.26925613	      7.77381950	      2.23718518	      0.92472045	      1.01118968	     40.49314390	     -9.19003463	     -0.94831893	    113.60907041	      1.98285234	     -1.35161249	      3.11313676	      6.04216567	      2.80132323	     31.69717143	      0.55322001	     20.94527007
     16.98666667	     -6.39330003	      3.20155148	      7.60088458	      2.23854871	      0.92724102	      1.00971521	     43.02355193	     -8.51110563	     -1.40725936	    111.81911027	      1.95161164	     -1.06464766	      1.01412031	      4.77129808	      3.01241054	     29.64019506	      0.51731899	     18.33532380
     16.99333333	     -5.74959132	      1.94596199	      6.90256308	      2.24077506	      0.93157683	      1.00858224	     43.83581840	     -7.29846080	     -1.98271189	    109.58440079	      1.91260860	     -0.77712458	     -2.67671644	      3.09461031	      2.35772489	     27.05533458	      0.47220467	     15.15392847
     17.00000000	     -6.05223440	      0.78558848	      6.43884011	      2.24296970	      0.93496138	      1.00731329	     45.54120983	     -6.42250300	     -2.63800937	    107.23130319	      1.87153930	     -0.55935709	     -5.09325778	      1.68172879	      1.62620308	     24.84736780	      0.43366838	     11.29853780
     17.00666667	     -6.38341531	     -0.29778394	      6.06963041	      2.24537353	      0.93849051	      1.00603429	     47.04916113	     -5.73495591	     -3.44042692	    104.64441505	      1.82638959	     -0.33596383	     -7.33352060	      0.36674894	      0.71435860	     22.76922261	      0.39739790	      6.90604778
     17.01333333	     -6.72064837	     -1.29211789	      5.78654999	      2.24800019	      0.94216719	      1.00471055	     48.33215625	     -5.22623597	     -4.35513573	    101.83263428	      1.77731475	     -0.09561376	     -9.39266059	     -0.84062390	     -0.39299052	     20.86283732	      0.36412520	      2.08189964
     17.02000000	     -7.20154896	     -2.11990129	      5.49185807	      2.25070785	      0.94571173	      1.00352273	     49.60302129	     -4.85042950	     -5.20845700	     98.83921549	      1.72506974	      0.12125573	    -11.08669916	     -1.84160445	     -1.75990035	     19.23362041	      0.33569000	     -2.98743403
     17.02666667	     -7.45769500	     -2.83330013	      5.39580628	      2.25349484	      0.94957785	      1.00217186	     50.37065039	     -4.74685896	     -6.24794326	     95.61055800	      1.66871904	      0.38953373	    -12.79797768	     -2.74985503	     -3.08570386	     17.85104590	      0.31155953	     -8.15057542
     17.03333333	     -7.79364182	     -3.38504089	      5.38646749	      2.25635288	      0.95328875	      1.00086056	     51.02448461	     -4.83826470	     -7.31124938	     92.18498824	      1.60893157	      0.62935096	    -14.19035370	     -3.49238930	     -4.40870445	     16.80992240	      0.29338849	    -13.12997114
